<svg xmlns="http://www.w3.org/2000/svg" viewBox="0 0 1200 630">
  <rect width="1200" height="630" fill="#05070d"/>
  <g opacity=".18" stroke="#ffffff">
    <path d="M0 80h1200M0 160h1200M0 240h1200M0 320h1200M0 400h1200M0 480h1200M0 560h1200"/>
    <path d="M120 0v630M240 0v630M360 0v630M480 0v630M600 0v630M720 0v630M840 0v630M960 0v630M1080 0v630"/>
  </g>
  <circle cx="820" cy="120" r="260" fill="#8b5cf6" opacity=".18"/>
  <circle cx="420" cy="260" r="260" fill="#2dd4bf" opacity=".16"/>
  <text x="88" y="250" fill="#f4f7fb" font-family="Inter, Arial, sans-serif" font-size="74" font-weight="800">QA Engineering Portfolio</text>
  <text x="92" y="330" fill="#aab3c2" font-family="Inter, Arial, sans-serif" font-size="32">Test automation • API quality • Developer tooling • CI/CD</text>
  <rect x="92" y="400" width="330" height="58" rx="8" fill="#2dd4bf"/>
  <text x="122" y="439" fill="#05070d" font-family="Inter, Arial, sans-serif" font-size="24" font-weight="700">Automation-first quality</text>
</svg>
